<svg viewBox="0 0 96 96" xmlns="http://www.w3.org/2000/svg" xmlns:xlink="http://www.w3.org/1999/xlink" id="Icons_Bank_M" overflow="hidden"><style>
.MsftOfcThm_Background1_Fill_v2 {
 fill:#FFFFFF; 
}
</style>
<g id="Icons"><path d="M48 21.006C45.7909 21.006 44 22.7969 44 25.006 44 27.2151 45.7909 29.006 48 29.006 50.2091 29.006 52 27.2151 52 25.006 51.9934 22.7996 50.2064 21.0126 48 21.006ZM48 27.006C46.8954 27.006 46 26.1106 46 25.006 46 23.9014 46.8954 23.006 48 23.006 49.1046 23.006 50 23.9014 50 25.006 50.0011 26.1106 49.1066 27.0069 48.002 27.008 48.0013 27.008 48.0007 27.008 48 27.008Z" class="MsftOfcThm_Background1_Fill_v2" fill="#FFFFFF"/><path d="M79 75.021 79 72 75 72 75 41 79 41 79 36 84 36 84 34 48 12 12 34 12 36 17 36 17 41 21 41 21 72 17 72 17 75.021 10 80.021 10 84 86 84 86 80.022ZM73 72 71 72 71 41 73 41ZM27 41 33 41 33 72 27 72ZM35 41 37 41 37 72 35 72ZM39 41 45 41 45 72 39 72ZM47 41 49 41 49 72 47 72ZM51 41 57 41 57 72 51 72ZM59 41 61 41 61 72 59 72ZM63 41 69 41 69 72 63 72ZM15.866 33.981 48 14.347 80.134 33.981C80.1393 33.9827 80.1421 33.9884 80.1404 33.9936 80.1394 33.9966 80.137 33.999 80.134 34L15.872 34C15.866 33.9992 15.8617 33.9937 15.8625 33.9876 15.8629 33.9851 15.8641 33.9827 15.866 33.981ZM19 36 77 36 77 39 19 39ZM23 41 25 41 25 72 23 72ZM19 76.05 19 74 77 74 77 76.05 77.837 76.65 78.329 77.002 17.671 77.002 18.164 76.65ZM84 82 12 82 12 81.052 14.871 79 81.134 79 84 81.052Z" class="MsftOfcThm_Background1_Fill_v2" fill="#FFFFFF"/></g></svg>