<svg viewBox="0 0 96 96" xmlns="http://www.w3.org/2000/svg" xmlns:xlink="http://www.w3.org/1999/xlink" id="Icons_HourglassFull1_M" overflow="hidden"><style>
.MsftOfcThm_Background1_lumMod_75_Fill_v2 {
 fill:#BFBFBF; 
}
.MsftOfcThm_Background1_lumMod_75_Stroke_v2 {
 stroke:#BFBFBF; 
}
</style>
<g id="Icons"><path d="M20 16 24.436 16C26.909 26.917 33.979 41.6 41.764 48.013 33.977 54.422 27.2 68.834 24.8 80L20 80 20 88 76 88 76 80 71.485 80C69.063 69.135 62 54.476 54.136 48.013 62.007 41.544 69.074 26.872 71.491 16L76 16 76 8 20 8ZM74 86 22 86 22 82 31.6 82 31.577 82.023 64.421 82.023 64.4 82 74 82ZM36.427 80 48.013 68.415 59.576 80ZM51.914 47.2C51.4658 47.5227 51.3641 48.1477 51.6869 48.5959 51.7498 48.6833 51.8265 48.76 51.914 48.823 59.7 54.437 66.905 69.064 69.443 80L62.4 80 48.015 65.585 33.6 80 26.833 80C29.312 68.976 36.359 54.318 43.983 48.825 44.4312 48.5023 44.5329 47.8773 44.2101 47.4291 44.1472 47.3417 44.0705 47.265 43.983 47.202 36.277 41.649 29.069 27 26.479 16L69.45 16C66.917 26.942 59.714 41.582 51.914 47.2ZM22 10 74 10 74 14 22 14Z" class="MsftOfcThm_Background1_lumMod_75_Fill_v2 MsftOfcThm_Background1_lumMod_75_Stroke_v2" stroke="#BFBFBF" stroke-width="1.19995" fill="#BFBFBF"/><path d="M32.944 28.418C36.599 36.367 41.044 42.618 45.152 45.579L47 46.911 47 48 49 48 49 46.837 50.745 45.579C54.898 42.587 59.369 36.332 63.012 28.418L63.665 27 32.292 27ZM60.524 29C57.16 35.931 53.213 41.336 49.575 43.957L47.948 45.129 46.322 43.957C42.729 41.369 38.8 35.963 35.43 29Z" class="MsftOfcThm_Background1_lumMod_75_Fill_v2 MsftOfcThm_Background1_lumMod_75_Stroke_v2" stroke="#BFBFBF" stroke-width="1.19995" fill="#BFBFBF"/><rect x="47" y="54" width="2" height="2" class="MsftOfcThm_Background1_lumMod_75_Fill_v2 MsftOfcThm_Background1_lumMod_75_Stroke_v2" stroke="#BFBFBF" stroke-width="1.19995" fill="#BFBFBF"/><rect x="47" y="58" width="2" height="2" class="MsftOfcThm_Background1_lumMod_75_Fill_v2 MsftOfcThm_Background1_lumMod_75_Stroke_v2" stroke="#BFBFBF" stroke-width="1.19995" fill="#BFBFBF"/><rect x="47" y="50" width="2" height="2" class="MsftOfcThm_Background1_lumMod_75_Fill_v2 MsftOfcThm_Background1_lumMod_75_Stroke_v2" stroke="#BFBFBF" stroke-width="1.19995" fill="#BFBFBF"/><rect x="47" y="62" width="2" height="2" class="MsftOfcThm_Background1_lumMod_75_Fill_v2 MsftOfcThm_Background1_lumMod_75_Stroke_v2" stroke="#BFBFBF" stroke-width="1.19995" fill="#BFBFBF"/></g></svg>